<svg width="18" height="18" viewBox="0 0 18 18" fill="none" xmlns="http://www.w3.org/2000/svg">
<path d="M7.73684 14.1765H3.52632C2.13107 14.1765 1 12.9123 1 11.3529V3.82353C1 2.26414 2.13107 1 3.52632 1H13.6316C15.0268 1 16.1579 2.26414 16.1579 3.82353V7.58824" stroke="#1F0F3C" stroke-linecap="round" stroke-linejoin="round"/>
<path d="M16.1258 3.46102L9.87089 7.54461C9.08364 8.0586 8.10967 8.0586 7.32242 7.54461L1.03516 3.43994" stroke="#1F0F3C" stroke-linecap="round" stroke-linejoin="round"/>
<path d="M13.6321 9.4707C15.4924 9.4707 17.0005 11.1562 17.0005 13.2354C17.0005 15.3146 15.4924 17.0001 13.6321 17.0001C11.7718 17.0001 10.2637 15.3146 10.2637 13.2354C10.2637 11.1562 11.7718 9.4707 13.6321 9.4707" stroke="#1F0F3C" stroke-linecap="round" stroke-linejoin="round"/>
<path d="M14.6834 12.6841L13.3683 14.1539L12.5781 13.2716" stroke="#1F0F3C" stroke-linecap="round" stroke-linejoin="round"/>
</svg>
