<svg width="24" height="24" viewBox="0 0 24 24" fill="none" xmlns="http://www.w3.org/2000/svg"><path fill-rule="evenodd" clip-rule="evenodd" d="M6.37 0.75H17.6313C20.7338 0.75 23.25 3.265 23.25 6.37V17.6313C23.25 20.7338 20.735 23.25 17.63 23.25H6.37C3.26625 23.25 0.75 20.735 0.75 17.63V6.37C0.75 3.26625 3.265 0.75 6.37 0.75V0.75Z" stroke="white" stroke-width="1.5" stroke-linecap="round" stroke-linejoin="round"></path><path d="M18.1859 5.3916C17.9534 5.39285 17.7646 5.5816 17.7646 5.8141C17.7646 6.0466 17.9546 6.23535 18.1871 6.23535C18.4196 6.23535 18.6084 6.0466 18.6084 5.8141C18.6096 5.58035 18.4196 5.3916 18.1859 5.3916" stroke="white" stroke-width="1.5" stroke-linecap="round" stroke-linejoin="round"></path><path d="M15.182 8.81802C16.9393 10.5754 16.9393 13.4246 15.182 15.182C13.4246 16.9393 10.5754 16.9393 8.81802 15.182C7.06066 13.4246 7.06066 10.5754 8.81802 8.81802C10.5754 7.06066 13.4246 7.06066 15.182 8.81802" stroke="white" stroke-width="1.5" stroke-linecap="round" stroke-linejoin="round"></path></svg>