<svg width="25" height="24" viewBox="0 0 25 24" fill="none" xmlns="http://www.w3.org/2000/svg"><path fill-rule="evenodd" clip-rule="evenodd" d="M6.875 0.75H18.13C21.2337 0.75 23.75 3.26625 23.75 6.37V17.6313C23.75 20.7338 21.2337 23.25 18.13 23.25H6.87C3.76625 23.25 1.25 20.7337 1.25 17.63V6.375C1.25 3.26875 3.76875 0.75 6.875 0.75V0.75Z" stroke="white" stroke-width="1.5" stroke-linecap="round" stroke-linejoin="round"></path><path d="M7.65039 10.875V17.625" stroke="white" stroke-width="1.5" stroke-linecap="round" stroke-linejoin="round"></path><path d="M12.1484 17.625V13.6875C12.1484 12.1337 13.4072 10.875 14.9609 10.875V10.875C16.5147 10.875 17.7734 12.1337 17.7734 13.6875V17.625" stroke="white" stroke-width="1.5" stroke-linecap="round" stroke-linejoin="round"></path><path d="M7.64719 6.79785C7.49219 6.79785 7.36594 6.9241 7.36719 7.0791C7.36719 7.2341 7.49344 7.36035 7.64844 7.36035C7.80344 7.36035 7.92969 7.2341 7.92969 7.0791C7.92969 6.92285 7.80344 6.79785 7.64719 6.79785" stroke="white" stroke-width="1.5" stroke-linecap="round" stroke-linejoin="round"></path></svg>