<svg width="24" height="24" viewBox="0 0 24 24" fill="none" xmlns="http://www.w3.org/2000/svg">
<path d="M12 21.9999C10.6333 21.9999 9.34167 21.7374 8.125 21.2124C6.90833 20.6874 5.84583 19.9708 4.9375 19.0624C4.02917 18.1541 3.3125 17.0916 2.7875 15.8749C2.2625 14.6583 2 13.3666 2 11.9999C2 10.6166 2.2625 9.32077 2.7875 8.11244C3.3125 6.90411 4.02917 5.84577 4.9375 4.93744C5.84583 4.02911 6.90833 3.31244 8.125 2.78744C9.34167 2.26244 10.6333 1.99994 12 1.99994C13.3833 1.99994 14.6792 2.26244 15.8875 2.78744C17.0958 3.31244 18.1542 4.02911 19.0625 4.93744C19.9708 5.84577 20.6875 6.90411 21.2125 8.11244C21.7375 9.32077 22 10.6166 22 11.9999C22 13.3666 21.7375 14.6583 21.2125 15.8749C20.6875 17.0916 19.9708 18.1541 19.0625 19.0624C18.1542 19.9708 17.0958 20.6874 15.8875 21.2124C14.6792 21.7374 13.3833 21.9999 12 21.9999ZM12 19.9499C12.4333 19.3499 12.8083 18.7249 13.125 18.0749C13.4417 17.4249 13.7 16.7333 13.9 15.9999H10.1C10.3 16.7333 10.5583 17.4249 10.875 18.0749C11.1917 18.7249 11.5667 19.3499 12 19.9499ZM9.4 19.5499C9.1 18.9999 8.8375 18.4291 8.6125 17.8374C8.3875 17.2458 8.2 16.6333 8.05 15.9999H5.1C5.58333 16.8333 6.1875 17.5583 6.9125 18.1749C7.6375 18.7916 8.46667 19.2499 9.4 19.5499ZM14.6 19.5499C15.5333 19.2499 16.3625 18.7916 17.0875 18.1749C17.8125 17.5583 18.4167 16.8333 18.9 15.9999H15.95C15.8 16.6333 15.6125 17.2458 15.3875 17.8374C15.1625 18.4291 14.9 18.9999 14.6 19.5499ZM4.25 13.9999H7.65C7.6 13.6666 7.5625 13.3374 7.5375 13.0124C7.5125 12.6874 7.5 12.3499 7.5 11.9999C7.5 11.6499 7.5125 11.3124 7.5375 10.9874C7.5625 10.6624 7.6 10.3333 7.65 9.99994H4.25C4.16667 10.3333 4.10417 10.6624 4.0625 10.9874C4.02083 11.3124 4 11.6499 4 11.9999C4 12.3499 4.02083 12.6874 4.0625 13.0124C4.10417 13.3374 4.16667 13.6666 4.25 13.9999ZM9.65 13.9999H14.35C14.4 13.6666 14.4375 13.3374 14.4625 13.0124C14.4875 12.6874 14.5 12.3499 14.5 11.9999C14.5 11.6499 14.4875 11.3124 14.4625 10.9874C14.4375 10.6624 14.4 10.3333 14.35 9.99994H9.65C9.6 10.3333 9.5625 10.6624 9.5375 10.9874C9.5125 11.3124 9.5 11.6499 9.5 11.9999C9.5 12.3499 9.5125 12.6874 9.5375 13.0124C9.5625 13.3374 9.6 13.6666 9.65 13.9999ZM16.35 13.9999H19.75C19.8333 13.6666 19.8958 13.3374 19.9375 13.0124C19.9792 12.6874 20 12.3499 20 11.9999C20 11.6499 19.9792 11.3124 19.9375 10.9874C19.8958 10.6624 19.8333 10.3333 19.75 9.99994H16.35C16.4 10.3333 16.4375 10.6624 16.4625 10.9874C16.4875 11.3124 16.5 11.6499 16.5 11.9999C16.5 12.3499 16.4875 12.6874 16.4625 13.0124C16.4375 13.3374 16.4 13.6666 16.35 13.9999ZM15.95 7.99994H18.9C18.4167 7.16661 17.8125 6.44161 17.0875 5.82494C16.3625 5.20827 15.5333 4.74994 14.6 4.44994C14.9 4.99994 15.1625 5.57077 15.3875 6.16244C15.6125 6.75411 15.8 7.36661 15.95 7.99994ZM10.1 7.99994H13.9C13.7 7.26661 13.4417 6.57494 13.125 5.92494C12.8083 5.27494 12.4333 4.64994 12 4.04994C11.5667 4.64994 11.1917 5.27494 10.875 5.92494C10.5583 6.57494 10.3 7.26661 10.1 7.99994ZM5.1 7.99994H8.05C8.2 7.36661 8.3875 6.75411 8.6125 6.16244C8.8375 5.57077 9.1 4.99994 9.4 4.44994C8.46667 4.74994 7.6375 5.20827 6.9125 5.82494C6.1875 6.44161 5.58333 7.16661 5.1 7.99994Z" fill="#2B233D"/>
</svg>
