<svg width="24" height="21" viewBox="0 0 24 21" fill="none" xmlns="http://www.w3.org/2000/svg"><path d="M21.75 6.6875C21.75 6.27329 21.4142 5.9375 21 5.9375C20.5858 5.9375 20.25 6.27329 20.25 6.6875H21.75ZM1.35565 15.2451C1.11134 14.9106 0.642131 14.8375 0.307638 15.0818C-0.0268553 15.3262 -0.0999629 15.7954 0.144347 16.1299L1.35565 15.2451ZM0.62257 14.9484C0.214379 15.0188 -0.0594728 15.4067 0.0109049 15.8149C0.0812827 16.2231 0.469239 16.497 0.87743 16.4266L0.62257 14.9484ZM4.125 14.5625L4.36329 15.2736C4.60886 15.1914 4.79461 14.9882 4.8546 14.7362C4.9146 14.4843 4.84035 14.2192 4.65822 14.0351L4.125 14.5625ZM3 1.0625L3.66058 0.707346C3.53797 0.479286 3.30639 0.330603 3.04798 0.314037C2.78958 0.29747 2.54091 0.415364 2.39018 0.625899L3 1.0625ZM9.75 6.6875L9.57288 7.41629C9.79223 7.4696 10.0239 7.42127 10.2037 7.28472C10.3834 7.14816 10.4921 6.93791 10.4996 6.71229L9.75 6.6875ZM19.875 3.3125L19.2488 3.72527C19.3876 3.9358 19.6229 4.0625 19.875 4.0625V3.3125ZM23.25 3.3125L23.874 3.72852C24.0275 3.49838 24.0418 3.20247 23.9113 2.95861C23.7807 2.71474 23.5266 2.5625 23.25 2.5625V3.3125ZM20.376 6.27147C20.1462 6.61612 20.2393 7.08177 20.584 7.31154C20.9286 7.5413 21.3943 7.44817 21.624 7.10353L20.376 6.27147ZM20.25 6.6875C20.25 10.487 19.1651 13.671 17.2032 15.8944C15.2517 18.1062 12.3718 19.4375 8.625 19.4375V20.9375C12.7532 20.9375 16.0608 19.4563 18.328 16.8868C20.5849 14.329 21.75 10.763 21.75 6.6875H20.25ZM8.625 19.4375C6.51958 19.4375 5.09722 18.8925 4.02244 18.132C2.92475 17.3553 2.14485 16.3256 1.35565 15.2451L0.144347 16.1299C0.926404 17.2006 1.834 18.421 3.156 19.3564C4.50091 20.3081 6.23042 20.9375 8.625 20.9375V19.4375ZM0.87743 16.4266C0.901218 16.4225 0.919647 16.4181 0.926045 16.4166C0.934746 16.4145 0.941802 16.4126 0.946071 16.4115C0.954607 16.4092 0.961622 16.4071 0.965391 16.406C0.973371 16.4037 0.980833 16.4014 0.986022 16.3998C0.997064 16.3963 1.01032 16.3921 1.02429 16.3876C1.05281 16.3784 1.09215 16.3655 1.1399 16.3498C1.23577 16.3182 1.37003 16.2737 1.52926 16.2208C1.84793 16.1148 2.26912 15.9742 2.68882 15.834C3.1086 15.6937 3.52721 15.5536 3.84085 15.4486C3.99768 15.3961 4.12828 15.3524 4.21968 15.3217C4.26537 15.3064 4.30127 15.2944 4.32575 15.2862C4.33798 15.2821 4.34737 15.279 4.35369 15.2769C4.35685 15.2758 4.35925 15.275 4.36086 15.2745C4.36166 15.2742 4.36227 15.274 4.36268 15.2738C4.36288 15.2738 4.36303 15.2737 4.36313 15.2737C4.36319 15.2737 4.36322 15.2737 4.36325 15.2737C4.36328 15.2736 4.36329 15.2736 4.125 14.5625C3.88671 13.8514 3.8867 13.8514 3.88667 13.8514C3.88665 13.8514 3.88661 13.8514 3.88656 13.8514C3.88646 13.8514 3.88631 13.8515 3.88611 13.8516C3.8857 13.8517 3.8851 13.8519 3.8843 13.8522C3.8827 13.8527 3.88031 13.8535 3.87715 13.8546C3.87084 13.8567 3.86147 13.8598 3.84924 13.8639C3.8248 13.8721 3.78893 13.8841 3.74326 13.8994C3.65192 13.93 3.5214 13.9737 3.36465 14.0262C3.05115 14.1312 2.63281 14.2712 2.21337 14.4113C1.79384 14.5515 1.37355 14.6918 1.05602 14.7974C0.89714 14.8502 0.764613 14.8941 0.670956 14.925C0.623938 14.9404 0.587834 14.9522 0.563462 14.9601C0.550989 14.9641 0.543439 14.9665 0.53972 14.9677C0.537529 14.9684 0.539122 14.9679 0.542794 14.9668C0.54441 14.9663 0.549662 14.9648 0.556831 14.9628C0.560417 14.9619 0.566889 14.9602 0.575106 14.9582C0.58102 14.9568 0.599065 14.9525 0.62257 14.9484L0.87743 16.4266ZM4.65822 14.0351C1.16291 10.5014 0.900667 5.28309 3.60982 1.4991L2.39018 0.625899C-0.735668 4.99191 -0.427907 11.0261 3.59178 15.0899L4.65822 14.0351ZM2.33942 1.41765C3.79624 4.12732 6.53269 6.67741 9.57288 7.41629L9.92712 5.95871C7.40231 5.34509 4.97126 3.14518 3.66058 0.707346L2.33942 1.41765ZM10.4996 6.71229C10.5479 5.2513 11.0643 4.03092 11.8962 3.18081C12.7241 2.3348 13.9057 1.8125 15.375 1.8125V0.3125C13.5305 0.3125 11.9534 0.977704 10.8241 2.13169C9.69885 3.28158 9.05958 4.8737 9.00041 6.66271L10.4996 6.71229ZM15.375 1.8125C16.4063 1.8125 17.1757 2.00841 17.7744 2.32792C18.3715 2.64657 18.8451 3.11285 19.2488 3.72527L20.5012 2.89973C19.9886 2.12215 19.3404 1.46343 18.4806 1.00458C17.6224 0.546591 16.6 0.3125 15.375 0.3125V1.8125ZM19.875 4.0625H23.25V2.5625H19.875V4.0625ZM22.626 2.89647L20.376 6.27147L21.624 7.10353L23.874 3.72852L22.626 2.89647Z" fill="white"></path></svg>