<?xml version="1.0" encoding="UTF-8"?> <svg xmlns="http://www.w3.org/2000/svg" width="18" height="16" viewBox="0 0 18 16" fill="none"><path fill-rule="evenodd" clip-rule="evenodd" d="M16.6664 3.49841C16.4832 2.69521 15.9408 2.06161 15.2512 1.84401C14.004 1.45441 9 1.45441 9 1.45441C9 1.45441 3.9984 1.45441 2.7488 1.84401C2.0616 2.05841 1.5192 2.69201 1.3336 3.49841C1 4.95601 1 8.00001 1 8.00001C1 8.00001 1 11.044 1.3336 12.5016C1.5168 13.3048 2.0592 13.9384 2.7488 14.156C3.9984 14.5456 9 14.5456 9 14.5456C9 14.5456 14.004 14.5456 15.2512 14.156C15.9384 13.9416 16.4808 13.308 16.6664 12.5016C17 11.044 17 8.00001 17 8.00001C17 8.00001 17 4.95601 16.6664 3.49841Z" stroke="white" stroke-linecap="round" stroke-linejoin="round"></path><path fill-rule="evenodd" clip-rule="evenodd" d="M7.40161 10.4L11.5584 8.00001L7.40161 5.60001V10.4Z" stroke="white" stroke-linecap="round" stroke-linejoin="round"></path></svg> 